<?xml version="1.0" encoding="utf-8"?>
<!-- Generator: Adobe Illustrator 19.0.0, SVG Export Plug-In . SVG Version: 6.00 Build 0)  -->
<svg version="1.1" id="Layer_1" xmlns="http://www.w3.org/2000/svg" xmlns:xlink="http://www.w3.org/1999/xlink" x="0px" y="0px"
	 viewBox="0 0 366.2 137.6" style="enable-background:new 0 0 366.2 137.6;" xml:space="preserve">
<g id="XMLID_405_">
	<path id="XMLID_34_" d="M68.8,0h34.4v137.6H51.6C23.1,137.6,0,114.5,0,86V0h34.4v89.8c0,9.5,7.7,17.2,17.2,17.2h17.2V0z
		 M297.4,30.6h17.2c9.5,0,17.2,7.7,17.2,17.2v89.8h34.4v-86c0-28.5-23.1-51.6-51.6-51.6H263v137.6h34.4V30.6z M183.1,0h51.6v86
		c0,28.5-23.1,51.6-51.6,51.6h-51.6v-86C131.5,23.1,154.6,0,183.1,0z M200.3,89.8V30.6h-17.2c-9.5,0-17.2,7.7-17.2,17.2V107h17.2
		C192.6,107,200.3,99.3,200.3,89.8z"/>
</g>
</svg>
